<svg xmlns="http://www.w3.org/2000/svg" viewBox="0 0 48 48" width="48" height="48">
  <defs>
    <linearGradient id="emerald-gradient" x1="0%" y1="0%" x2="100%" y2="100%">
      <stop offset="0%" style="stop-color:#10b981"/>
      <stop offset="100%" style="stop-color:#0d4b3b"/>
    </linearGradient>
    <linearGradient id="gold-gradient" x1="0%" y1="0%" x2="100%" y2="100%">
      <stop offset="0%" style="stop-color:#fbbf24"/>
      <stop offset="100%" style="stop-color:#d4a84b"/>
    </linearGradient>
  </defs>
  
  <!-- Background circle -->
  <circle cx="24" cy="24" r="22" fill="url(#emerald-gradient)" stroke="#0d4b3b" stroke-width="1.5"/>
  
  <!-- Tile grid pattern (3x3) -->
  <g fill="none" stroke="#ffffff" stroke-width="0.75" opacity="0.3">
    <line x1="16" y1="8" x2="16" y2="40"/>
    <line x1="32" y1="8" x2="32" y2="40"/>
    <line x1="8" y1="16" x2="40" y2="16"/>
    <line x1="8" y1="32" x2="40" y2="32"/>
  </g>
  
  <!-- Calculator symbol / tile with measurement marks -->
  <rect x="12" y="12" width="24" height="24" rx="2" fill="none" stroke="url(#gold-gradient)" stroke-width="2"/>
  
  <!-- Measurement ticks -->
  <g stroke="url(#gold-gradient)" stroke-width="1.5" stroke-linecap="round">
    <!-- Top ticks -->
    <line x1="18" y1="12" x2="18" y2="15"/>
    <line x1="24" y1="12" x2="24" y2="17"/>
    <line x1="30" y1="12" x2="30" y2="15"/>
    <!-- Left ticks -->
    <line x1="12" y1="18" x2="15" y2="18"/>
    <line x1="12" y1="24" x2="17" y2="24"/>
    <line x1="12" y1="30" x2="15" y2="30"/>
  </g>
  
  <!-- "TC" monogram -->
  <g fill="#ffffff" font-family="system-ui, -apple-system, sans-serif" font-weight="700">
    <text x="24" y="30" font-size="12" text-anchor="middle">TC</text>
  </g>
  
  <!-- Small calculator button grid hint -->
  <g fill="#ffffff" opacity="0.6">
    <rect x="28" y="28" width="3" height="3" rx="0.5"/>
    <rect x="32" y="28" width="3" height="3" rx="0.5"/>
    <rect x="28" y="32" width="3" height="3" rx="0.5"/>
    <rect x="32" y="32" width="3" height="3" rx="0.5"/>
  </g>
</svg>
